<?xml version="1.0" encoding="UTF-8" standalone="no"?>
<!DOCTYPE svg PUBLIC "-//W3C//DTD SVG 20010904//EN"
              "http://www.w3.org/TR/2001/REC-SVG-20010904/DTD/svg10.dtd">

<svg xmlns="http://www.w3.org/2000/svg"
     width="2.29333in" height="0.343333in"
     viewBox="0 0 688 103">
  <path id="Seleção #2"
        fill="white" stroke="none" stroke-width="1"
        d="M 393.00,1.43
           C 408.66,-0.51 432.38,2.32 445.00,12.38
             469.94,32.25 469.09,74.62 443.00,93.21
             430.84,101.88 412.46,103.17 398.00,103.00
             385.10,102.85 367.51,97.86 358.01,88.91
             340.35,72.26 338.97,37.53 354.33,19.00
             364.58,6.62 378.03,3.88 393.00,1.43 Z
           M 0.00,3.00
           C 0.00,3.00 31.00,3.00 31.00,3.00
             31.00,3.00 31.00,38.00 31.00,38.00
             31.00,38.00 74.00,38.00 74.00,38.00
             74.00,38.00 74.00,3.00 74.00,3.00
             74.00,3.00 106.00,3.00 106.00,3.00
             106.00,3.00 106.00,102.00 106.00,102.00
             106.00,102.00 74.00,102.00 74.00,102.00
             74.00,102.00 74.00,64.00 74.00,64.00
             74.00,64.00 31.00,64.00 31.00,64.00
             31.00,64.00 31.00,102.00 31.00,102.00
             31.00,102.00 0.00,102.00 0.00,102.00
             0.00,102.00 0.00,3.00 0.00,3.00 Z
           M 120.00,3.00
           C 120.00,3.00 214.00,3.00 214.00,3.00
             214.00,3.00 214.00,28.00 214.00,28.00
             214.00,28.00 151.00,28.00 151.00,28.00
             151.00,28.00 151.00,40.00 151.00,40.00
             151.00,40.00 203.00,40.00 203.00,40.00
             203.00,40.00 203.00,62.00 203.00,62.00
             203.00,62.00 151.00,62.00 151.00,62.00
             151.00,62.00 151.00,77.00 151.00,77.00
             151.00,77.00 205.00,77.00 205.00,77.00
             216.20,77.16 214.00,81.39 214.00,102.00
             214.00,102.00 120.00,102.00 120.00,102.00
             120.00,102.00 120.00,3.00 120.00,3.00 Z
           M 225.00,3.00
           C 225.00,3.00 271.00,3.00 271.00,3.00
             286.40,3.00 300.28,2.70 314.00,11.27
             343.09,29.44 341.87,79.83 311.00,95.63
             298.59,101.98 284.57,102.00 271.00,102.00
             271.00,102.00 225.00,102.00 225.00,102.00
             225.00,102.00 225.00,3.00 225.00,3.00 Z
           M 473.00,3.00
           C 473.00,3.00 503.00,3.00 503.00,3.00
             515.37,3.02 516.92,9.39 522.95,19.00
             522.95,19.00 550.00,61.00 550.00,61.00
             550.00,61.00 550.00,3.00 550.00,3.00
             550.00,3.00 580.00,3.00 580.00,3.00
             580.00,3.00 580.00,102.00 580.00,102.00
             580.00,102.00 550.00,102.00 550.00,102.00
             537.42,101.94 536.51,95.83 530.32,86.00
             530.32,86.00 503.00,43.00 503.00,43.00
             503.00,43.00 503.00,102.00 503.00,102.00
             503.00,102.00 473.00,102.00 473.00,102.00
             473.00,102.00 473.00,3.00 473.00,3.00 Z
           M 594.00,3.00
           C 594.00,3.00 688.00,3.00 688.00,3.00
             688.00,3.00 688.00,28.00 688.00,28.00
             688.00,28.00 625.00,28.00 625.00,28.00
             625.00,28.00 625.00,40.00 625.00,40.00
             625.00,40.00 677.00,40.00 677.00,40.00
             677.00,40.00 677.00,62.00 677.00,62.00
             677.00,62.00 625.00,62.00 625.00,62.00
             625.00,62.00 625.00,77.00 625.00,77.00
             625.00,77.00 679.00,77.00 679.00,77.00
             690.20,77.16 688.00,81.39 688.00,102.00
             688.00,102.00 594.00,102.00 594.00,102.00
             594.00,102.00 594.00,3.00 594.00,3.00 Z
           M 399.00,27.29
           C 392.90,28.22 386.96,29.17 382.10,33.39
             372.55,41.67 372.55,62.33 382.10,70.61
             388.37,76.05 399.97,77.76 408.00,76.71
             414.03,75.93 420.47,74.29 424.90,69.89
             433.06,61.80 433.43,43.55 425.79,35.04
             419.49,28.04 407.94,26.45 399.00,27.29 Z
           M 256.00,29.00
           C 256.00,29.00 256.00,66.00 256.00,66.00
             256.00,68.76 255.65,73.18 257.74,75.26
             259.82,77.35 264.24,77.00 267.00,77.00
             275.20,77.01 286.92,77.55 293.96,72.87
             305.83,64.97 306.47,40.99 294.96,32.65
             287.70,27.39 265.53,29.00 256.00,29.00 Z" />
</svg>
